<svg version="1.1" id="Layer_1" xmlns="http://www.w3.org/2000/svg" xmlns:xlink="http://www.w3.org/1999/xlink" x="0px" y="0px"
	 width="100%" viewBox="15 17 142 133" enable-background="new 0 0 171 160" xml:space="preserve">
<path fill="#07080E" opacity="1.000000" stroke="none" 
	d="
M52.473526,138.414642 
	C53.875870,135.955704 55.757347,134.308243 57.915195,134.635956 
	C65.096436,135.726639 65.527367,130.314911 67.413490,125.033737 
	C62.685406,125.033737 58.314972,125.031754 53.944538,125.034180 
	C45.949493,125.038605 37.954037,125.098778 29.959532,125.036095 
	C22.519503,124.977768 17.139433,120.196045 17.044491,112.757874 
	C16.800034,93.606056 16.834774,74.448875 16.960913,55.295174 
	C17.001040,49.202469 22.006695,44.982048 28.632515,44.971733 
	C45.621975,44.945293 62.611675,45.015533 79.600822,44.941910 
	C81.040077,44.935673 83.145950,46.102085 83.901939,43.848225 
	C84.633835,41.666164 82.926964,40.793938 81.353851,39.661858 
	C75.758057,35.634880 74.789902,28.580055 78.925980,23.513226 
	C82.918312,18.622484 89.919975,18.001303 94.970062,22.089802 
	C99.864746,26.052485 100.181610,32.836754 95.690506,38.082005 
	C95.154640,38.707848 94.566467,39.375175 93.857948,39.749790 
	C92.136177,40.660130 91.357330,42.045132 91.878212,43.849747 
	C92.492287,45.977203 94.412689,44.940189 95.697090,44.946049 
	C111.853004,45.019764 128.009415,44.976849 144.165665,44.990612 
	C153.935562,44.998936 157.084915,48.106903 157.094086,57.696835 
	C157.111130,75.518860 157.146194,93.340958 157.114960,111.162910 
	C157.097580,121.075485 153.060699,125.052650 143.191315,125.057549 
	C131.706589,125.063255 120.221848,125.058876 107.992073,125.058876 
	C108.858246,127.718636 109.653824,129.954300 110.308281,132.230515 
	C110.941788,134.433929 112.409309,135.063400 114.445854,134.559265 
	C117.795082,133.730194 120.253654,134.968430 122.400497,137.897461 
	C124.844116,141.157883 122.764984,142.621155 120.460480,143.840927 
	C118.816010,144.711334 116.925751,144.683243 115.101692,144.688843 
	C96.697601,144.745377 78.293121,144.793976 59.889534,144.666702 
	C53.777008,144.624420 52.659428,143.620285 52.473526,138.414642 
z"/>
<path fill="#F7E5C9" opacity="1.000000" stroke="none" 
	d="
M52.265038,137.975616 
	C52.411598,141.661728 54.170654,142.912384 57.762318,142.894577 
	C77.704781,142.795624 97.648026,142.836349 117.590942,142.865723 
	C120.397682,142.869858 122.575233,142.275864 122.629532,138.515289 
	C129.629242,138.096771 136.622467,138.010696 143.615616,138.015900 
	C147.689117,138.018921 150.282730,140.298065 150.843735,144.129852 
	C151.338043,147.506119 147.900558,149.981781 143.624786,149.978500 
	C129.659119,149.967773 115.693443,149.977829 101.727768,149.977768 
	C78.794746,149.977646 55.861721,149.973740 32.928696,149.976807 
	C28.971167,149.977325 24.790840,149.909286 24.158463,144.822968 
	C23.678022,140.958710 27.989603,138.017181 33.328609,138.003723 
	C39.490566,137.988190 45.652554,137.981689 52.265038,137.975616 
z"/>
<path fill="#F8F7E9" opacity="1.000000" stroke="none" 
	d="
M53.239105,92.783279 
	C44.510761,93.118858 36.018852,93.109047 27.531538,93.301674 
	C25.153950,93.355644 24.837423,92.307121 24.845116,90.331604 
	C24.887926,79.334503 24.926197,68.335823 24.775625,57.340290 
	C24.712545,52.733936 27.623119,52.922203 30.791037,52.925381 
	C65.451042,52.960171 100.111076,52.957264 134.771103,52.964237 
	C138.436966,52.964973 142.105331,53.047024 145.767899,52.936882 
	C148.792282,52.845928 149.897476,54.212086 149.877625,57.155697 
	C149.803452,68.153549 149.770844,79.153419 149.920609,90.149841 
	C149.958466,92.928955 148.886276,93.474548 146.406097,93.421280 
	C139.243500,93.267410 132.076324,93.327477 124.453880,93.190338 
	C122.431412,91.281555 121.801338,89.217873 122.374252,86.480270 
	C123.712044,84.758575 125.276619,84.728317 127.227829,84.889343 
	C128.176056,85.099998 128.723267,85.516029 129.578766,85.050339 
	C129.936249,84.656540 130.106934,84.516457 130.587372,84.230011 
	C132.325409,83.666908 133.747238,83.689743 135.485138,84.311768 
	C135.974564,84.647400 136.141617,84.817261 136.424973,85.320511 
	C136.779099,86.828140 135.721725,87.786522 135.978912,89.006859 
	C136.971130,88.446037 136.746643,87.296143 137.451630,86.243393 
	C138.006760,85.653084 138.425842,85.477036 139.235809,85.456070 
	C139.898834,85.497452 139.913116,86.086082 140.201965,85.570358 
	C138.581528,79.452972 137.011475,73.675171 135.770966,67.811516 
	C135.411346,66.111641 135.307510,63.689335 133.006805,63.588760 
	C130.636337,63.485134 130.538986,65.909714 130.024536,67.593552 
	C128.904709,71.258865 128.504929,75.108818 127.361786,78.759384 
	C126.075989,82.865494 124.358955,83.131729 121.550476,79.871803 
	C117.839935,75.564796 117.635162,73.144173 120.538315,68.258118 
	C121.354630,66.884247 122.475044,65.608620 122.357918,63.909817 
	C121.365273,63.470821 120.925392,64.025871 120.459389,64.448807 
	C116.186935,68.326447 116.183815,68.332008 113.194107,63.676746 
	C112.782913,63.036484 112.212532,62.855480 111.164566,62.915283 
	C110.347343,62.956074 109.878632,62.953896 109.057037,62.898109 
	C107.902306,62.767605 107.098244,62.662025 106.307152,62.511185 
	C101.663055,61.625717 98.505623,63.220825 96.850342,68.072334 
	C94.831810,68.062386 94.301468,66.513412 93.334503,65.480400 
	C89.773087,61.675777 86.579918,61.529655 82.091019,65.164871 
	C81.522598,65.325134 81.276901,65.317215 80.697571,65.149948 
	C77.832443,63.109188 76.808449,64.331154 76.585091,66.900818 
	C76.299286,70.188995 76.638901,73.499458 76.377098,76.786079 
	C76.210640,78.875916 76.297859,81.558258 73.315277,81.558540 
	C70.309669,81.558815 69.814476,79.014259 69.630913,76.611740 
	C69.417252,73.815468 69.601608,71.006935 69.508575,68.206200 
	C69.449097,66.415222 69.622856,64.517090 67.595490,63.072586 
	C66.606468,62.617241 65.902679,62.645378 64.829605,62.766357 
	C60.812656,62.329525 57.162323,62.292759 53.161652,62.824406 
	C52.224342,62.831306 51.977390,61.700668 50.898735,62.457886 
	C47.070873,62.776829 46.367870,65.159233 46.197697,68.066147 
	C46.131649,69.194435 46.009899,70.598717 44.666618,70.927765 
	C43.336830,71.253517 42.704681,69.977577 41.962154,69.128838 
	C41.635612,68.755592 41.429482,68.279778 41.106907,67.909813 
	C39.884926,66.508331 39.681133,63.276905 37.394470,64.014389 
	C35.425026,64.649559 36.640800,67.580727 36.232986,69.454552 
	C35.408669,73.242126 36.281750,77.052856 36.081036,80.856148 
	C35.975136,82.862846 36.274395,85.003181 39.512993,84.921616 
	C41.704884,84.621361 43.522797,85.183685 45.704933,85.054588 
	C46.719158,84.972755 47.388474,85.011696 48.362137,85.209274 
	C49.388943,85.483017 50.057304,86.101440 51.104836,85.348160 
	C51.527504,85.029541 51.708778,84.909218 52.218704,84.719955 
	C53.806591,84.830269 54.659775,85.583466 55.445274,86.949226 
	C55.682255,89.353416 54.574734,90.931938 53.239105,92.783279 
z"/>
<path fill="#BDE0EB" opacity="1.000000" stroke="none" 
	d="
M106.631668,101.405746 
	C107.440498,101.131966 107.892921,101.073257 108.678795,101.103302 
	C111.990768,102.713142 115.086082,102.726326 118.602692,101.788666 
	C119.460655,101.549751 119.968246,101.510918 120.868164,101.633270 
	C122.858170,102.152992 124.499443,101.948990 126.560814,102.001984 
	C131.617188,102.034836 136.237244,102.077957 140.859924,102.032639 
	C147.178314,101.970711 149.151825,104.203316 148.602707,110.436592 
	C148.444733,112.229973 148.663879,114.108963 147.123108,116.018166 
	C143.616821,117.588814 140.288025,116.937134 137.026093,116.963051 
	C125.651314,117.053452 114.275383,117.000038 102.445450,116.995483 
	C98.235344,117.413452 96.627518,115.498260 96.549110,111.957550 
	C96.523911,110.819534 96.520035,109.690506 95.571449,108.381531 
	C94.925255,107.625740 94.637115,107.139900 94.323929,106.199692 
	C94.249474,103.280220 95.785591,102.592270 98.000252,102.230347 
	C100.756371,101.779922 103.570129,102.466125 106.631668,101.405746 
z"/>
<path fill="#BDE0EB" opacity="1.000000" stroke="none" 
	d="
M26.863224,116.203384 
	C25.495317,115.659187 25.017582,114.760429 24.949425,113.313698 
	C28.608618,109.623093 34.073673,109.783272 37.660793,106.307861 
	C38.317867,105.671249 39.745060,105.713387 40.542278,106.230530 
	C44.727829,108.945641 47.844494,107.284691 51.022503,104.262314 
	C53.584126,101.826141 57.527184,103.386749 60.722759,101.413551 
	C61.452297,101.121048 61.905300,101.067863 62.690590,101.105560 
	C65.525589,102.741364 68.330238,101.627106 71.305153,102.179047 
	C72.856346,102.766991 73.673965,104.145973 74.942642,104.241188 
	C78.811623,104.531555 79.886955,107.177284 80.771439,110.549316 
	C81.571022,111.213554 82.137085,111.616608 83.126724,112.035782 
	C86.855370,113.205978 90.432686,112.001450 94.185303,113.282906 
	C96.527016,117.049271 93.797752,116.883102 91.693062,116.958687 
	C86.414291,117.148247 81.126938,116.814575 75.414749,117.256439 
	C73.916931,117.453171 72.852051,117.539383 71.401352,117.503952 
	C69.560364,116.877487 68.081413,116.916412 66.288010,117.288757 
	C53.585472,117.403214 41.187180,117.417702 28.396347,117.227211 
	C27.756765,116.723663 27.473307,116.465714 26.863224,116.203384 
z"/>
<path fill="#F8F7E9" opacity="1.000000" stroke="none" 
	d="
M116.277802,92.794510 
	C115.281616,93.140152 114.526688,93.205292 113.213181,93.152832 
	C113.756744,92.282654 113.081924,91.306725 112.405228,91.385567 
	C105.818054,92.152969 99.079857,90.180664 92.296097,92.771851 
	C80.640610,93.127823 69.278625,93.187073 57.458160,93.141365 
	C55.668770,90.738930 57.654510,89.176033 58.512772,86.997070 
	C60.296192,85.523994 62.159981,85.287552 64.341797,84.795219 
	C65.746407,84.630074 66.767365,84.641479 68.154343,84.679962 
	C71.769478,85.646057 74.886543,85.412415 78.172852,83.589775 
	C79.669800,83.521088 80.687996,84.046707 82.070686,84.454941 
	C83.641647,84.705803 84.897865,84.742546 86.468933,84.461472 
	C87.852409,84.336060 88.921135,84.460548 90.310638,84.379364 
	C93.419479,84.949310 94.417786,83.663383 94.182281,80.673386 
	C94.692024,79.091621 95.280945,78.001282 97.069321,77.982826 
	C99.642654,84.538475 99.642654,84.538475 108.201347,84.547455 
	C109.065361,84.573624 109.557533,84.581047 110.413742,84.587936 
	C111.959839,84.574593 113.141914,84.624382 114.660049,84.558891 
	C116.278870,84.643539 116.916771,83.627563 118.084053,82.839325 
	C120.030197,83.097801 120.770760,84.357674 121.513779,86.063904 
	C121.052254,89.414993 117.983810,90.295418 116.277802,92.794510 
z"/>
<path fill="#BCDAE6" opacity="1.000000" stroke="none" 
	d="
M60.537708,101.089249 
	C61.173573,103.839188 59.463116,104.173576 57.432041,103.985901 
	C53.786285,103.649017 50.810364,104.960732 48.766182,107.897606 
	C46.963760,110.487137 45.266365,110.301506 42.952427,108.630806 
	C40.255573,106.683624 38.150566,106.520599 35.287910,109.509079 
	C33.194641,111.694351 29.029598,111.895073 25.399658,112.989571 
	C24.928059,109.963280 24.844826,106.927818 24.868336,103.448807 
	C25.113214,102.841515 25.251348,102.677757 25.196194,102.257271 
	C26.049803,99.947548 27.922749,101.034943 29.361071,101.021912 
	C39.598637,100.929169 49.837605,100.991379 60.537708,101.089249 
z"/>
<path fill="#AABBC3" opacity="1.000000" stroke="none" 
	d="
M100.941444,116.269180 
	C116.180977,116.171280 131.118011,116.157440 146.522537,116.116592 
	C147.205811,115.949600 147.421570,115.809624 147.942383,115.905838 
	C146.865631,118.117897 144.751816,117.756378 142.811615,117.759460 
	C129.157455,117.781143 115.503227,117.758720 101.391762,117.625793 
	C100.647873,117.166985 100.558479,116.781982 100.941444,116.269180 
z"/>
<path fill="#CCE9F5" opacity="1.000000" stroke="none" 
	d="
M72.371384,103.285019 
	C69.111465,102.460609 65.931358,104.143257 63.129513,101.565193 
	C67.044487,101.138878 71.066101,101.081322 75.545250,101.101791 
	C76.476761,101.485237 76.993011,101.525291 77.768852,101.301544 
	C78.762016,101.127586 79.518196,101.075439 80.645294,101.111092 
	C81.178818,101.274605 81.341408,101.350319 81.747086,101.310776 
	C82.442543,101.138245 82.894913,101.080971 83.681168,101.108994 
	C84.177574,101.271492 84.340111,101.348701 84.746597,101.310394 
	C85.442139,101.138115 85.893738,101.081337 86.679527,101.106270 
	C87.177261,101.267120 87.340813,101.346252 87.748398,101.304031 
	C94.036087,101.131874 100.079735,101.081055 106.555740,101.110451 
	C105.680298,104.536407 102.815422,102.528763 100.686775,102.950005 
	C98.602539,103.362450 95.984962,102.283691 95.011765,105.763397 
	C92.939850,107.086052 92.592804,102.931427 89.957184,104.597610 
	C88.300507,104.472015 87.010468,104.435425 85.303528,104.449951 
	C80.829338,104.240044 76.675041,105.279709 72.371384,103.285019 
z"/>
<path fill="#C1E0EB" opacity="1.000000" stroke="none" 
	d="
M148.547729,115.964966 
	C148.038269,116.124680 147.829102,116.107338 147.304977,116.089783 
	C146.003052,112.778564 149.334030,109.550858 146.822159,105.993233 
	C145.439117,104.034386 144.429840,102.843407 141.881134,102.943939 
	C136.906296,103.140167 131.918213,103.000328 126.467041,102.998749 
	C125.654114,102.649536 125.506973,102.231743 125.774124,101.468765 
	C132.941788,101.131432 139.894226,101.145348 146.841736,100.966507 
	C149.214767,100.905418 150.187576,101.679390 149.911667,104.072212 
	C149.462509,107.967812 150.845673,112.029854 148.547729,115.964966 
z"/>
<path fill="#BCDAE6" opacity="1.000000" stroke="none" 
	d="
M100.817215,116.113953 
	C101.149979,116.472565 101.055229,116.759766 100.947113,117.273956 
	C92.585876,117.543144 84.237251,117.585091 75.435211,117.496994 
	C79.625450,114.304794 84.808601,116.931374 89.628113,115.949387 
	C91.246277,115.619682 93.625938,117.469536 94.208496,114.239891 
	C93.829468,113.805069 93.688263,113.617950 93.477821,113.085403 
	C93.705803,110.872658 94.577026,109.217773 95.598969,107.286865 
	C98.933365,107.475784 97.769142,109.903656 97.980949,111.636398 
	C98.202927,113.452332 97.371811,115.778236 100.817215,116.113953 
z"/>
<path fill="#F5F3E2" opacity="1.000000" stroke="none" 
	d="
M92.418694,93.185349 
	C92.003036,91.463989 92.238701,90.031990 94.326569,90.034370 
	C100.103783,90.040955 105.881302,90.025833 111.657990,90.086525 
	C112.987877,90.100494 113.924980,90.676544 112.989517,92.659714 
	C109.066254,93.117256 105.477898,93.199287 101.450592,93.166176 
	C100.288460,92.246910 99.369949,92.521385 98.239304,92.824821 
	C96.272011,93.137817 94.553398,93.219971 92.418694,93.185349 
z"/>
<path fill="#F5F3E2" opacity="1.000000" stroke="none" 
	d="
M116.265350,93.193024 
	C115.962135,89.734688 118.246040,88.215942 120.896645,86.561325 
	C121.383110,85.752693 121.874718,85.585388 122.735489,86.032974 
	C123.333992,88.335091 123.664101,90.318428 123.995514,92.689438 
	C123.245712,93.155289 122.494606,93.233452 121.380325,93.193275 
	C120.293213,92.250488 119.370392,92.512306 118.231285,92.848305 
	C117.488014,93.161446 116.991089,93.236244 116.265350,93.193024 
z"/>
<path fill="#3C84A3" opacity="1.000000" stroke="none" 
	d="
M91.585213,29.720289 
	C91.941795,33.119671 89.843979,34.501236 87.266190,34.615749 
	C85.042358,34.714539 83.807190,33.008980 83.947868,30.282402 
	C86.324615,28.202047 88.721024,28.131435 91.585213,29.720289 
z"/>
<path fill="#F5F3E2" opacity="1.000000" stroke="none" 
	d="
M58.640656,86.540665 
	C59.410328,88.979828 58.374882,90.679398 57.062920,92.671692 
	C55.926823,93.118195 54.853966,93.199974 53.391018,93.166916 
	C52.466667,90.752075 54.070694,89.176987 54.978249,86.966217 
	C56.061169,85.905167 57.155449,85.860390 58.640656,86.540665 
z"/>
<path fill="#93C6DB" opacity="1.000000" stroke="none" 
	d="
M91.968964,29.653334 
	C89.614265,29.983707 87.267189,29.955200 84.478996,29.917839 
	C83.676926,27.573153 85.188637,26.584898 87.046013,26.284222 
	C89.391373,25.904552 91.094551,27.040977 91.968964,29.653334 
z"/>
<path fill="#CCE9F5" opacity="1.000000" stroke="none" 
	d="
M119.269989,101.794563 
	C115.731529,103.434914 112.472252,103.782173 109.120735,101.560051 
	C109.766380,101.141586 110.520508,101.091118 111.646965,101.115219 
	C112.369148,101.453300 112.763275,101.607933 113.437805,101.454010 
	C115.264938,101.174431 116.850029,101.109085 118.712448,101.116905 
	C119.173561,101.323051 119.357353,101.456024 119.269989,101.794563 
z"/>
<path fill="#BCDAE6" opacity="1.000000" stroke="none" 
	d="
M66.389664,117.519318 
	C67.328705,115.152725 69.020111,115.757362 70.890564,117.093910 
	C69.608871,117.471504 68.202217,117.560707 66.389664,117.519318 
z"/>
<path fill="#CCE9F5" opacity="1.000000" stroke="none" 
	d="
M125.580872,101.116318 
	C125.992584,101.594124 125.993896,101.995216 125.996841,102.697083 
	C124.502243,102.847183 123.006020,102.696495 121.255753,102.272873 
	C120.821205,101.864433 120.640694,101.728935 120.735359,101.396217 
	C122.397186,101.145859 123.783821,101.092735 125.580872,101.116318 
z"/>
<path fill="#F8F7E9" opacity="1.000000" stroke="none" 
	d="
M118.354767,93.204330 
	C118.689278,91.988396 119.573303,91.793243 120.832611,92.815842 
	C120.252960,93.157295 119.488777,93.239655 118.354767,93.204330 
z"/>
<path fill="#F8F7E9" opacity="1.000000" stroke="none" 
	d="
M98.360138,93.169380 
	C98.699135,91.980370 99.581306,91.800407 100.826859,92.796219 
	C100.250969,93.128387 99.490311,93.205742 98.360138,93.169380 
z"/>
<path fill="#C1E0EB" opacity="1.000000" stroke="none" 
	d="
M120.677734,101.108398 
	C121.010544,101.198990 121.004967,101.599449 121.003342,101.799690 
	C120.556755,102.000038 120.111794,102.000137 119.332825,102.000183 
	C118.998833,102.000137 118.995918,101.594589 118.992844,101.392334 
	C119.441483,101.132645 119.893204,101.075226 120.677734,101.108398 
z"/>
<path fill="#B4D8E4" opacity="1.000000" stroke="none" 
	d="
M77.675903,101.090149 
	C77.557503,101.805580 77.014229,102.024620 76.158768,101.377090 
	C76.450508,101.120071 76.898232,101.060318 77.675903,101.090149 
z"/>
<path fill="#BCDAE6" opacity="1.000000" stroke="none" 
	d="
M26.730404,116.416733 
	C26.937275,116.285591 27.295870,116.419106 27.829134,116.787430 
	C27.629913,116.908630 27.256023,116.795013 26.730404,116.416733 
z"/>
<path fill="#C1E0EB" opacity="1.000000" stroke="none" 
	d="
M113.412277,101.131897 
	C113.295860,101.346527 112.911880,101.453278 112.273598,101.374916 
	C112.394432,101.134537 112.769569,101.079277 113.412277,101.131897 
z"/>
<path fill="#CCE9F6" opacity="1.000000" stroke="none" 
	d="
M24.911518,102.249390 
	C25.173016,102.171890 25.356869,102.332977 25.499962,102.524498 
	C25.524338,102.557129 25.374088,102.720215 25.139795,102.914154 
	C24.923431,102.836250 24.871784,102.667236 24.911518,102.249390 
z"/>
<path fill="#C1E0EB" opacity="1.000000" stroke="none" 
	d="
M87.747345,101.108139 
	C87.728310,101.278397 87.464188,101.374100 87.106888,101.328896 
	C87.176567,101.136513 87.339409,101.085045 87.747345,101.108139 
z"/>
<path fill="#C1E0EB" opacity="1.000000" stroke="none" 
	d="
M84.746712,101.119278 
	C84.726685,101.288918 84.462837,101.382950 84.107010,101.335632 
	C84.177658,101.144081 84.340271,101.093880 84.746712,101.119278 
z"/>
<path fill="#C1E0EB" opacity="1.000000" stroke="none" 
	d="
M81.746414,101.118729 
	C81.726852,101.290596 81.463539,101.385681 81.108215,101.339828 
	C81.178360,101.146576 81.340508,101.094269 81.746414,101.118729 
z"/>
<path fill="#0B0B12" opacity="1.000000" stroke="none" 
	d="
M123.426346,86.250656 
	C122.558968,86.289330 122.114037,86.226898 121.330673,86.190262 
	C120.249542,85.115639 119.506844,84.015221 118.484802,82.727425 
	C117.790680,83.193176 117.279327,80.657051 116.984215,82.550964 
	C116.821091,83.597801 117.075752,84.715157 115.965454,85.738342 
	C114.405807,86.266266 113.172447,86.715057 111.487114,86.032166 
	C108.225967,81.615463 109.564125,76.719650 109.328056,72.052055 
	C109.171143,68.949463 109.153717,65.800636 110.512192,62.378109 
	C113.854225,59.910198 115.306046,60.568180 115.039795,64.420021 
	C114.980850,65.272743 114.509773,66.546448 115.879105,66.901176 
	C117.082870,67.213013 117.517761,66.089737 118.175537,65.382439 
	C119.824898,63.608894 120.853653,59.307098 123.852913,61.510502 
	C127.026237,63.841797 123.224312,66.419113 121.922096,68.502129 
	C118.440765,74.070869 118.332733,74.163292 124.866264,81.784454 
	C127.080482,76.433365 127.748627,70.927544 129.150421,65.634224 
	C129.703400,63.546169 130.368286,61.242802 133.017212,61.203323 
	C134.368500,61.183186 135.792496,61.847630 136.189316,63.712296 
	C137.698044,70.801979 139.334518,77.864471 140.909256,85.333321 
	C140.802795,85.904037 140.710297,86.078560 140.321548,86.251411 
	C139.572113,86.272278 139.118927,86.294815 138.340210,86.418159 
	C137.509872,86.682404 137.020798,86.644295 136.320068,86.100021 
	C136.092697,85.795387 136.082367,85.365715 135.972473,85.181046 
	C134.294739,83.021797 132.538422,83.036469 130.416870,84.748825 
	C130.189102,84.995644 129.974228,85.396179 129.957870,85.622864 
	C129.824402,85.996460 129.707275,86.143387 129.308441,86.282906 
	C127.300735,86.233521 125.574768,86.191544 123.426346,86.250656 
z"/>
<path fill="#0D0D16" opacity="1.000000" stroke="none" 
	d="
M40.252632,85.691589 
	C36.404961,87.604851 34.703617,86.595161 34.791222,82.492172 
	C34.915710,76.661644 34.844227,70.826225 34.801250,64.993301 
	C34.789429,63.389133 34.989426,61.870213 36.713612,61.378620 
	C38.460770,60.880478 39.457241,62.144638 40.204567,63.495567 
	C41.610603,66.037224 42.960552,68.609901 45.316410,70.973404 
	C45.316410,68.925682 45.181644,66.866959 45.347778,64.832809 
	C45.601318,61.728455 46.849442,59.998821 50.525196,62.131424 
	C52.070229,63.349422 52.433987,64.789825 52.377293,66.323372 
	C52.151245,72.437866 53.176880,78.598038 51.574165,85.122177 
	C51.107605,86.180748 50.607262,86.517723 49.458687,86.496017 
	C48.266426,86.251015 47.542538,86.097610 46.464149,85.834648 
	C42.805332,84.681122 42.691025,81.261658 40.968193,78.705971 
	C40.709553,78.180511 40.671089,77.917297 40.747757,77.660530 
	C40.553242,77.611725 40.468460,77.708183 40.542526,77.933754 
	C40.630703,78.202316 40.748421,78.461159 40.975723,79.051285 
	C41.548607,81.444481 41.657471,83.476082 40.252632,85.691589 
z"/>
<path fill="#111119" opacity="1.000000" stroke="none" 
	d="
M79.480942,83.956245 
	C76.319130,86.315155 73.388168,87.491882 69.560349,85.952881 
	C67.664200,85.231133 65.903656,84.526100 65.549789,82.778610 
	C64.104019,75.639229 62.930943,68.463600 66.770935,61.281498 
	C69.888031,61.143917 70.994835,62.578907 70.942520,65.225876 
	C70.870163,68.886688 70.855766,72.552864 70.976143,76.211487 
	C71.036057,78.032639 70.070190,80.846268 72.996223,81.004799 
	C76.287682,81.183136 74.954086,78.182350 75.039894,76.524765 
	C75.237549,72.706581 75.136467,68.869614 75.062576,65.042084 
	C75.025368,63.115173 75.710289,61.646801 77.642181,61.389202 
	C79.599388,61.128227 80.706673,62.301136 80.920967,64.652893 
	C83.051514,71.395554 83.952065,77.723328 79.480942,83.956245 
z"/>
<path fill="#0F0F18" opacity="1.000000" stroke="none" 
	d="
M94.783813,80.869659 
	C94.799591,82.682724 96.958847,84.206833 95.129509,85.658966 
	C93.655075,86.829361 92.076607,86.615372 90.495911,84.861313 
	C88.054016,83.435539 88.095154,81.393349 87.815262,79.809944 
	C87.489197,81.020409 88.742798,82.849800 87.467056,84.757370 
	C86.136681,86.495926 84.792786,86.982391 82.709229,85.990585 
	C81.145973,84.961960 80.838211,83.709404 81.075813,82.319809 
	C82.007401,76.871399 81.238716,71.377228 81.720520,65.456161 
	C83.644913,60.671814 90.050423,59.797367 93.508209,63.523022 
	C94.496124,64.587463 95.051765,66.053101 95.870453,67.681580 
	C96.519936,70.052818 94.739922,71.618881 94.847427,73.874741 
	C94.310013,76.309921 94.739517,78.451920 94.783813,80.869659 
z"/>
<path fill="#181824" opacity="1.000000" stroke="none" 
	d="
M59.326294,86.676468 
	C57.930550,86.665802 56.871693,86.543076 55.417782,86.501045 
	C54.224503,86.070435 53.013165,86.258224 52.335297,84.961960 
	C50.848377,77.700584 51.747051,70.564209 51.983494,63.173443 
	C56.094131,60.095451 60.041344,60.618748 64.325836,62.454842 
	C65.323051,65.995605 65.323051,65.995605 60.705421,69.134201 
	C63.127361,71.591637 64.176674,74.301834 61.567932,77.289665 
	C60.071033,79.004082 61.481430,79.410439 62.751530,79.977348 
	C65.313797,81.121017 66.917221,82.712700 64.696266,85.716156 
	C62.912655,86.746078 61.299484,86.722923 59.326294,86.676468 
z"/>
<path fill="#121219" opacity="1.000000" stroke="none" 
	d="
M94.361206,74.437294 
	C92.153816,71.745003 95.132782,70.410736 95.688194,68.239563 
	C96.095734,67.995888 96.366104,68.008835 96.401001,67.924423 
	C99.472916,60.494328 99.471664,60.493813 108.781639,61.683746 
	C111.564819,66.390755 107.983238,67.363800 104.888123,68.911217 
	C105.632713,70.708420 107.944519,71.492317 107.987427,73.679840 
	C108.032967,76.001663 106.516426,77.256378 104.562462,78.686852 
	C107.115181,80.501495 111.282097,81.074532 109.148499,85.713196 
	C107.592491,86.094818 106.297447,86.336655 104.996513,86.374138 
	C97.293022,86.596062 97.292564,86.580116 97.117798,78.431152 
	C95.880280,77.120705 95.699883,75.568916 94.361206,74.437294 
z"/>
<path fill="#D9D7CF" opacity="1.000000" stroke="none" 
	d="
M109.259537,85.948669 
	C109.603180,82.721085 108.855408,80.729561 105.000587,81.095619 
	C103.726105,81.216644 102.234962,81.318382 102.122047,79.318703 
	C102.026993,77.635239 102.786018,76.890053 104.453598,76.919373 
	C106.477310,76.954956 106.823860,75.588943 106.931473,73.947418 
	C107.056473,72.040855 106.233772,71.171600 104.342529,71.244980 
	C102.431023,71.319138 102.313507,70.068481 102.341118,68.610069 
	C102.378258,66.649315 103.731972,66.539886 105.087029,66.687302 
	C108.062515,67.011009 109.503151,65.929955 109.035172,62.399933 
	C109.447380,61.972881 109.827377,61.958248 110.492584,61.952888 
	C110.811821,69.653946 110.845848,77.345734 110.992874,85.493599 
	C110.613525,85.949768 110.121170,85.949844 109.259537,85.948669 
z"/>
<path fill="#F5F3E2" opacity="1.000000" stroke="none" 
	d="
M64.836075,85.825897 
	C65.161812,82.592628 64.067932,80.973923 60.658508,81.038002 
	C59.478020,81.060181 57.818283,81.608765 57.823376,79.363571 
	C57.826664,77.914200 57.851818,76.773407 59.846394,76.776802 
	C61.930805,76.780350 61.989998,75.116806 62.023380,73.554520 
	C62.058395,71.916092 61.316711,71.039391 59.645824,71.111855 
	C57.553177,71.202606 57.796062,69.750816 57.790028,68.418236 
	C57.781704,66.580070 59.136562,66.819038 60.245098,66.861214 
	C62.713581,66.955124 64.612549,66.461617 64.511078,63.078712 
	C65.186478,62.227608 65.774132,61.693523 66.772713,61.115685 
	C65.475929,69.289742 63.747395,77.509003 69.033798,85.581764 
	C67.908134,85.903801 66.613251,85.896446 64.836075,85.825897 
z"/>
<path fill="#F5F3E2" opacity="1.000000" stroke="none" 
	d="
M40.391430,86.004105 
	C40.054062,83.644905 40.098351,81.286835 40.180916,78.488411 
	C40.382847,77.805382 40.546497,77.562691 41.138420,77.223274 
	C43.001713,79.781677 44.436729,82.436821 45.990700,85.408524 
	C44.441181,87.921196 42.517323,85.252380 40.391430,86.004105 
z"/>
<path fill="#F0F1ED" opacity="1.000000" stroke="none" 
	d="
M81.668449,64.998871 
	C81.975739,71.656883 82.064621,78.314949 82.239243,85.427246 
	C81.369545,85.463905 80.414108,85.046318 79.254837,84.390244 
	C82.321304,78.329727 80.071571,71.978653 80.906113,65.456917 
	C81.013206,65.000923 81.450035,64.998909 81.668449,64.998871 
z"/>
<path fill="#F2EFD7" opacity="1.000000" stroke="none" 
	d="
M52.272179,62.616356 
	C52.326771,69.893883 52.294228,76.892410 52.178146,84.339470 
	C52.085812,84.996010 52.077015,85.204018 52.033123,85.722321 
	C51.754280,86.128212 51.510536,86.223793 50.958199,86.076477 
	C50.720512,78.274925 50.791424,70.716278 50.865562,62.704445 
	C51.342354,61.747742 51.787098,61.684814 52.272179,62.616356 
z"/>
<path fill="#F5F3E2" opacity="1.000000" stroke="none" 
	d="
M135.889893,86.105133 
	C136.529175,85.933128 136.965668,86.070869 137.708405,86.363785 
	C138.012314,86.841156 137.999527,87.163658 138.009384,87.485466 
	C138.060516,89.154381 138.001892,90.770050 136.030045,91.411469 
	C135.411499,91.612679 134.681305,91.816566 134.357132,91.054932 
	C133.561813,89.186356 134.038132,87.616219 135.889893,86.105133 
z"/>
<path fill="#FCFCF8" opacity="1.000000" stroke="none" 
	d="
M130.594131,84.995705 
	C130.090134,83.330406 130.614044,82.102783 132.484863,81.968842 
	C134.175842,81.847771 135.890472,81.787743 135.905685,84.608734 
	C134.241425,84.996170 132.620300,84.995972 130.594131,84.995705 
z"/>
<path fill="#F5F3E2" opacity="1.000000" stroke="none" 
	d="
M50.351448,85.858315 
	C50.873940,85.869484 51.098274,85.905403 51.660316,85.986969 
	C51.612957,88.000076 50.786041,88.675774 49.073349,86.704514 
	C49.344643,86.230637 49.698967,86.056847 50.351448,85.858315 
z"/>
<path fill="#F5F3E2" opacity="1.000000" stroke="none" 
	d="
M140.173523,86.359619 
	C140.151321,86.131310 140.277344,86.012871 140.649323,85.811966 
	C140.704102,85.976166 140.512939,86.222824 140.173523,86.359619 
z"/>
<path fill="#F5F3E2" opacity="1.000000" stroke="none" 
	d="
M129.165924,86.388596 
	C129.171097,86.187111 129.315475,86.098732 129.700684,85.929947 
	C129.729385,86.066933 129.517258,86.284317 129.165924,86.388596 
z"/>
<path fill="#0B1015" opacity="1.000000" stroke="none" 
	d="
M95.644890,106.973473 
	C96.135147,108.964989 96.715790,110.967392 94.145851,112.385269 
	C90.332672,114.513573 86.519928,113.039703 82.413513,113.215576 
	C81.594147,112.670776 81.200241,112.341881 80.557388,111.949844 
	C78.389450,106.817543 78.867760,105.812668 84.217232,104.556610 
	C86.255302,104.703423 87.922607,104.297028 89.428055,105.398743 
	C91.000191,105.974220 92.713173,104.860634 94.611008,106.135925 
	C94.979874,106.491570 95.140945,106.736259 95.644890,106.973473 
z"/>
<path fill="#BCDAE6" opacity="1.000000" stroke="none" 
	d="
M86.242424,105.482422 
	C82.843239,106.205498 78.131325,104.869736 80.185295,111.466087 
	C78.783714,107.969360 75.953537,105.360214 72.075905,103.381638 
	C76.361427,103.026535 80.711533,103.025803 85.525543,103.031982 
	C86.569244,103.655663 86.710823,104.372849 86.242424,105.482422 
z"/>
<path fill="#E0EFF7" opacity="1.000000" stroke="none" 
	d="
M82.279724,113.293045 
	C85.659836,112.916382 89.331627,112.833084 93.456505,112.699585 
	C93.915596,112.873413 93.921593,113.097443 93.949127,113.656830 
	C90.173889,113.773392 86.343681,114.493645 82.279724,113.293045 
z"/>
<path fill="#F5F3E2" opacity="1.000000" stroke="none" 
	d="
M93.914520,74.543060 
	C94.969109,73.985222 95.282356,72.367622 96.329811,72.917427 
	C98.161858,73.879021 96.901299,75.739014 97.116684,77.580978 
	C96.404358,78.854103 95.794983,79.711945 95.053711,80.865158 
	C94.159241,79.128113 91.701454,77.412903 93.914520,74.543060 
z"/>
<path fill="#F5F3E2" opacity="1.000000" stroke="none" 
	d="
M87.494186,85.168625 
	C87.225563,82.908455 87.225563,80.789848 87.225563,78.104630 
	C89.110687,79.949516 89.191086,82.165230 90.121414,84.303886 
	C89.630043,85.852364 88.790306,85.926117 87.494186,85.168625 
z"/>
<path fill="#F5F3E2" opacity="1.000000" stroke="none" 
	d="
M116.045242,85.838959 
	C115.824753,83.819901 116.007462,81.779587 116.205070,79.572762 
	C117.450233,79.891258 117.649887,81.011604 118.171204,82.204697 
	C117.911514,83.788994 118.268623,85.386932 116.045242,85.838959 
z"/>
<path fill="#BDE0EB" opacity="1.000000" stroke="none" 
	d="
M86.259666,105.861694 
	C86.002426,105.101112 85.999077,104.412971 85.992592,103.381866 
	C87.426300,103.245781 89.379204,102.422401 89.527252,105.341820 
	C88.418221,105.840836 87.465889,105.887482 86.259666,105.861694 
z"/>
<path fill="#C2C0BA" opacity="1.000000" stroke="none" 
	d="
M41.429100,76.856781 
	C41.354225,77.297852 41.141758,77.469154 40.574245,77.844254 
	C40.093933,77.179008 39.514885,76.245468 40.575703,75.578148 
	C40.595085,75.565956 41.043350,76.235542 41.429100,76.856781 
z"/>
<path fill="#EDEDE6" opacity="1.000000" stroke="none" 
	d="
M88.712204,66.858185 
	C92.917336,69.908440 90.208244,70.797653 87.178886,72.118965 
	C87.385574,70.015068 85.804367,68.107567 88.712204,66.858185 
z"/>
</svg>